HIERARCHY
ROOT Bone
{
	OFFSET 0.000000 0.000000 0.000000
	CHANNELS 6 Xposition Yposition Zposition Xrotation Yrotation Zrotation
	JOINT Bone.001
	{
		OFFSET 0.002685 0.000000 0.142282
		CHANNELS 3 Xrotation Yrotation Zrotation
		JOINT Bone.002
		{
			OFFSET 0.002685 0.000000 0.131544
			CHANNELS 3 Xrotation Yrotation Zrotation
			JOINT Bone.003
			{
				OFFSET -0.002685 0.000000 0.131544
				CHANNELS 3 Xrotation Yrotation Zrotation
				JOINT Bone.004
				{
					OFFSET -0.002685 0.000000 0.131544
					CHANNELS 3 Xrotation Yrotation Zrotation
					JOINT Bone.005
					{
						OFFSET -0.005369 0.000000 0.131544
						CHANNELS 3 Xrotation Yrotation Zrotation
						End Site
						{
							OFFSET 0.000000 0.000000 0.131544
						}
					}
				}
			}
		}
	}
}
MOTION
Frames: 30
Frame Time: 0.041667
0.000000 0.000000 0.000000 0.000000 -46.735705 0.000000 0.000000 30.421852 0.000000 0.000000 1.295492 0.000000 0.000000 0.000000 0.000000 0.000000 0.000000 0.000000 0.000000 -1.295492 0.000000 
0.000000 0.000000 0.000000 0.000000 -44.193071 0.000000 0.000000 28.816819 0.000000 0.000000 0.000000 0.000000 0.000000 0.000000 0.000000 0.000000 2.695868 0.000000 0.000000 -4.018861 0.000000 
0.000000 0.000000 0.000000 0.000000 -45.000000 0.000000 0.000000 28.686148 0.000000 0.000000 2.606891 0.000000 0.000000 -1.311400 0.000000 0.000000 1.311400 0.000000 0.000000 -2.606891 0.000000 
0.000000 0.000000 0.000000 0.000000 -41.729512 0.000000 0.000000 25.415660 0.000000 0.000000 1.295492 0.000000 0.000000 1.311400 0.000000 0.000000 0.000000 0.000000 0.000000 -2.606891 0.000000 
0.000000 0.000000 0.000000 0.000000 -40.971736 0.000000 0.000000 25.026340 0.000000 0.000000 1.269003 0.000000 0.000000 1.283895 0.000000 0.000000 0.000000 0.000000 0.000000 -2.552898 0.000000 
0.000000 0.000000 0.000000 0.000000 -39.522631 0.000000 0.000000 23.577235 0.000000 0.000000 1.269003 0.000000 0.000000 1.283895 0.000000 0.000000 -1.283895 0.000000 0.000000 0.000000 0.000000 
0.000000 0.000000 0.000000 0.000000 -39.522631 0.000000 0.000000 23.577235 0.000000 0.000000 1.269003 0.000000 0.000000 1.283895 0.000000 0.000000 -1.283895 0.000000 0.000000 0.000000 0.000000 
0.000000 0.000000 0.000000 0.000000 -40.971736 0.000000 0.000000 25.716618 0.000000 0.000000 1.218875 0.000000 0.000000 0.000000 0.000000 0.000000 0.000000 0.000000 0.000000 -1.218875 0.000000 
0.000000 0.000000 0.000000 0.000000 -40.236358 0.000000 0.000000 24.981240 0.000000 0.000000 0.000000 0.000000 0.000000 1.218875 0.000000 0.000000 0.000000 0.000000 0.000000 -1.218875 0.000000 
0.000000 0.000000 0.000000 0.000000 -40.236358 0.000000 0.000000 24.981240 0.000000 0.000000 0.000000 0.000000 0.000000 1.218875 0.000000 0.000000 1.231977 0.000000 0.000000 -3.655749 0.000000 
0.000000 0.000000 0.000000 0.000000 -39.522631 0.000000 0.000000 24.267513 0.000000 0.000000 0.000000 0.000000 0.000000 1.218875 0.000000 0.000000 0.000000 0.000000 0.000000 -2.423771 0.000000 
0.000000 0.000000 0.000000 0.000000 -38.829825 0.000000 0.000000 22.716407 0.000000 0.000000 1.182001 0.000000 0.000000 0.000000 0.000000 0.000000 1.195149 0.000000 0.000000 -3.545230 0.000000 
0.000000 0.000000 0.000000 0.000000 -38.990994 0.000000 0.000000 24.059577 0.000000 0.000000 0.000000 0.000000 0.000000 -1.182001 0.000000 0.000000 2.377150 0.000000 0.000000 -2.377150 0.000000 
0.000000 0.000000 0.000000 0.000000 -38.333340 0.000000 0.000000 23.401923 0.000000 0.000000 -1.182001 0.000000 0.000000 1.182001 0.000000 0.000000 0.000000 0.000000 0.000000 -1.182001 0.000000 
0.000000 0.000000 0.000000 0.000000 -37.694240 0.000000 0.000000 22.439122 0.000000 0.000000 0.000000 0.000000 0.000000 -1.204896 0.000000 0.000000 2.423771 0.000000 0.000000 -3.613881 0.000000 
0.000000 0.000000 0.000000 0.000000 -37.504142 0.000000 0.000000 21.390724 0.000000 0.000000 1.182001 0.000000 0.000000 -1.182001 0.000000 0.000000 0.000000 0.000000 0.000000 -1.168080 0.000000 
0.000000 0.000000 0.000000 0.000000 -37.504142 0.000000 0.000000 21.390724 0.000000 0.000000 1.182001 0.000000 0.000000 -2.350081 0.000000 0.000000 2.350081 0.000000 0.000000 -3.503532 0.000000 
0.000000 0.000000 0.000000 0.000000 -38.659808 0.000000 0.000000 23.404690 0.000000 0.000000 -1.204896 0.000000 0.000000 1.204896 0.000000 0.000000 -1.204896 0.000000 0.000000 -1.190109 0.000000 
0.000000 0.000000 0.000000 0.000000 -37.971604 0.000000 0.000000 21.858186 0.000000 0.000000 0.000000 0.000000 0.000000 0.000000 0.000000 0.000000 1.182001 0.000000 0.000000 -4.641709 0.000000 
0.000000 0.000000 0.000000 0.000000 -36.253838 0.000000 0.000000 19.793823 0.000000 0.000000 1.204896 0.000000 0.000000 -1.204896 0.000000 0.000000 0.000000 0.000000 0.000000 -2.364695 0.000000 
0.000000 0.000000 0.000000 0.000000 -37.971604 0.000000 0.000000 21.511589 0.000000 0.000000 1.204896 0.000000 0.000000 -1.204896 0.000000 0.000000 1.204896 0.000000 0.000000 -4.727988 0.000000 
0.000000 0.000000 0.000000 0.000000 -37.504142 0.000000 0.000000 21.911331 0.000000 0.000000 0.000000 0.000000 0.000000 0.000000 0.000000 0.000000 0.000000 0.000000 0.000000 -3.637861 0.000000 
0.000000 0.000000 0.000000 0.000000 -37.971604 0.000000 0.000000 22.026208 0.000000 0.000000 0.000000 0.000000 0.000000 0.000000 0.000000 0.000000 0.000000 0.000000 0.000000 -2.489553 0.000000 
0.000000 0.000000 0.000000 0.000000 -37.971604 0.000000 0.000000 22.026208 0.000000 0.000000 1.269003 0.000000 0.000000 -2.522148 0.000000 0.000000 2.522148 0.000000 0.000000 -4.977431 0.000000 
0.000000 0.000000 0.000000 0.000000 -38.659808 0.000000 0.000000 23.641448 0.000000 0.000000 -1.295492 0.000000 0.000000 1.295492 0.000000 0.000000 -1.295492 0.000000 0.000000 -2.539306 0.000000 
0.000000 0.000000 0.000000 0.000000 -39.957549 0.000000 0.000000 24.581298 0.000000 0.000000 0.000000 0.000000 0.000000 0.000000 0.000000 0.000000 -1.322993 0.000000 0.000000 -1.304917 0.000000 
0.000000 0.000000 0.000000 0.000000 -37.971604 0.000000 0.000000 22.220430 0.000000 0.000000 1.369779 0.000000 0.000000 -1.369779 0.000000 0.000000 0.000000 0.000000 0.000000 -1.351555 0.000000 
0.000000 0.000000 0.000000 0.000000 -38.290163 0.000000 0.000000 22.538990 0.000000 0.000000 0.000000 0.000000 0.000000 1.369779 0.000000 0.000000 -1.369779 0.000000 0.000000 -1.351555 0.000000 
0.000000 0.000000 0.000000 0.000000 -35.942112 0.000000 0.000000 19.797773 0.000000 0.000000 1.400776 0.000000 0.000000 0.000000 0.000000 0.000000 0.000000 0.000000 0.000000 -1.400776 0.000000 
0.000000 0.000000 0.000000 0.000000 -34.992020 0.000000 0.000000 20.248457 0.000000 0.000000 0.000000 0.000000 0.000000 0.000000 0.000000 0.000000 0.000000 0.000000 0.000000 0.000000 0.000000 
